<svg id="Layer_1" data-name="Layer 1" xmlns="http://www.w3.org/2000/svg" viewBox="0 0 264.6 304.81"><title>aideSoignat3</title><path d="M-259,385.74a30.84,30.84,0,0,1,19,7.18c1.67,1.4,3.26,1.51,4.91.08,12.16-10.6,33.08-10.09,46,1.42,14.19,12.58,18.1,32.07,10,49.66-4.69,10.23-12.18,18.2-20.52,25.46-10.11,8.79-21.49,15.68-33.29,21.92-2.61,1.38-5.29,2.18-8.1.72-19.18-10-37.39-21.35-50.17-39.38-14-19.71-12-42.38,4.72-57.89C-279.43,388.52-271.21,385.39-259,385.74Zm-38.47,39.36c-.08,10.74,4.35,21.66,13,31.58,12.22,14,27.66,23.76,43.83,32.5,2.55,1.38,4.77.65,7.07-.57,11.32-6.05,22.28-12.66,32-21.13,8.18-7.15,15.68-14.91,20.2-25C-174,426-177.83,408.1-191,396.52c-9.73-8.56-28.23-13-43.05-.57-2.43,2-4.87,1.64-7.21-.36A27.82,27.82,0,0,0-251.71,390C-274.54,383.3-297.26,400.75-297.43,425.1Z" transform="translate(370.36 -320.22)" fill="#fff"/><path d="M-254.82,546.65c0,5.82-.46,11.69.13,17.45.64,6.36-2.62,10-7.33,12.93-10.64,6.62-25.26,1.7-30-9.88a15,15,0,0,1-.9-7.32c.87-9.65-2.56-17.36-9.51-24.09-12.8-12.36-24.95-25.41-37.93-37.58-8.19-7.68-11.53-16.45-11.23-27.5.52-19.28.4-38.58.42-57.88,0-5,1.7-8.83,6.51-10.67s9.25,0,12.13,5.16a14.21,14.21,0,0,0,7.24,6.44c7.09,3,10.74,8.54,11.67,16.09s.33,15.28.5,22.93c.05,2.37.06,4.72,2.24,6.28,9.95,7.14,17.46,16.83,26.27,25.16,6.28,5.94,12.26,12.21,18.39,18.31,7.67,7.64,11.87,16.67,11.44,27.7C-255,535.66-254.82,541.16-254.82,546.65Zm-45.55-49.13c-2-1.76-3.57-3-4.95-4.33-7.44-7.38-14.79-14.86-22.28-22.2a20.09,20.09,0,0,1-6.24-15.21c.08-12.81,0-25.63,0-38.45,0-2.66,0-5.32-.93-7.88-1.12-2.93-3.09-4.72-6.29-4.83-3.4-.13-5.62,1.57-6.92,4.67-1.13,2.7-1.1,5.53-1.11,8.35,0,18.81.09,37.62-.05,56.43a25.84,25.84,0,0,0,8.27,19.57c13.42,13.17,26.45,26.75,40,39.78,7.59,7.29,11.35,15.56,11,26.14-.35,10.39,6.74,18,15.92,18.2,9,.17,16.76-8,16.88-18.06s.17-20,0-30c-.15-8.38-2.31-16.21-8.38-22.35q-21.24-21.48-42.71-42.74c-4.23-4.22-9.36-5.5-15.15-4.24-2,.44-3.94,1-4.57,3.31s.77,3.7,2.24,5.16q11.37,11.24,22.62,22.59C-301.71,492.8-299.75,493.88-300.37,497.52Zm-31.05-60.24c-.81,4.9-.12,10.05-.2,15.19,0,2.21.2,4.37,2.6,5.43,5.45,2.43,12.64-1.72,12.83-7.62.21-6.48.23-13,0-19.44a15.62,15.62,0,0,0-7.93-13.59c-4.4-2.6-7-1.28-7.23,3.87C-331.59,426.42-331.42,431.74-331.42,437.28Z" transform="translate(370.36 -320.22)" fill="#fff"/><path d="M-212.25,575.33c-3.94-1.61-5.93-5.5-6.49-9.68-1.82-13.43-1.33-26.92-.88-40.37.27-8.28,4.24-15.24,10.12-21.12,12.36-12.36,23.92-25.65,37.21-36.9,9.5-8,13.67-16.43,11.47-28.46-.55-3,.09-6.3.31-9.45.53-7.31,4.15-12.56,10.89-15.42a14.56,14.56,0,0,0,7.92-7.13c2.09-4.2,5.84-5.8,10.46-4.86a9.73,9.73,0,0,1,8.09,8.42,42,42,0,0,1,.57,8.45c-.54,17.8-.48,35.61,0,53.41.28,9.52-3,17.35-9.91,24.06-12.82,12.37-25.06,25.33-37.92,37.64-8.12,7.77-12.89,16.69-11.4,27.94,1.81,13.77-16,20.31-25.12,16.29-6.2-2.72-2.45-1-3.2-2.25l.59-.67c14,5.95,24.17-.6,24.59-15.85.32-11.1,4.92-20.12,12.76-27.82,13.55-13.3,26.91-26.78,40.4-40.13a21.28,21.28,0,0,0,6.38-15.76c0-20-.13-40-.25-59.94a21.73,21.73,0,0,0-.57-5.93c-1.51-5.15-7.89-7-11.6-3.58-2.29,2.14-2.43,5-2.44,7.86q0,20,0,40c0,6-1.4,11.6-5.81,16q-12.19,12.18-24.54,24.2c-1,1-1.91,2.91-4,1.79-.24-1.29.58-2,1.26-2.65,7.85-7.93,15.66-15.89,23.63-23.69,1.92-1.87,3.7-3.52,2.54-6.36s-3.57-3.16-6.17-3.38c-5.19-.43-9.42,1.55-13.1,5q-22,20.73-42.76,42.72A28.2,28.2,0,0,0-217,528.1c.1,10.16.18,20.32-.05,30.48-.13,5.79,1.3,10.83,5.16,15.15C-212.15,574-212,575.09-212.25,575.33Zm69-138.23c0-4,.12-8,0-12-.13-3.11,1.65-7.34-2.75-8.61-4.11-1.19-6.52,2.43-9,5a6.69,6.69,0,0,0-1.71,3,74.22,74.22,0,0,0-1,28.21c.51,3.34,6.45,5.95,10.8,5.29s3.67-4,3.69-6.95C-143.21,446.41-143.23,441.76-143.23,437.1Z" transform="translate(370.36 -320.22)" fill="#fff"/><path d="M-209.73,576.89a21.38,21.38,0,0,1-3.17-2c.23-.24.75-1,1-1.2l2.43,1.5C-209.68,575.45-209.53,576.67-209.73,576.89Z" transform="translate(370.36 -320.22)" fill="#fff"/><path d="M-227.68,450.66c2.4-2,2.85-4.93,3.92-7.48,1.92-4.54,5.2-6.76,10.21-6.09s10.11,1.32,14.6,4.73c-4,0-8.1.27-12.11-.07-4.42-.37-6.68,1.41-8,5.57-1.95,6.17-4.39,12.19-6.64,18.27a21.5,21.5,0,0,1-1.36,3.2c-.66,1.17-1.59,2.37-3.09,2.07-1.32-.26-1.31-1.8-1.62-2.83-3.41-11.64-6.75-23.3-10.11-34.95-.42-1.43-.86-2.85-1.43-4.72-3,3.59-4.24,7.73-6.16,11.44-1.57,3-3.6,4.53-7.09,4.22-6.17-.54-12.36-.87-18.56-1.89A32,32,0,0,1-260.51,439c3.85.17,5.72-1.46,7-4.9,2.67-7.34,5.65-14.56,8.47-21.85.67-1.75,1.45-3.83,3.4-3.91,2.47-.1,2.13,2.61,2.58,4.13,3.19,10.83,6.16,21.72,9.3,32.57C-229.26,446.91-229.24,449-227.68,450.66Zm-16.67-24.94c3.38-1.4,2.44-.36,3.17,2.38,1.72,6.42,3.46,12.84,5.3,19.23,1.66,5.79,4.47,14.54,6.21,20.3,1.87-2.64,6-15.59,9.48-22.53,1.34-2.71,5.95-6,13.12-4.48-1.16-.47-4.76-2-8.09-1.51a13.45,13.45,0,0,0-4.6,1.82c-3.56,6.26-7.11,13.68-8.26,13.51s-1.67-2.43-2-3.35c-3.39-11-7-21.14-10.14-32.18-.45-1.57-.42-3.55-2.66-4.74-1.22,3.38-3.34,6.49-4.46,9.6-.54.41-5.89,15.1-5.45,15.55C-252.07,440-244.78,426-244.35,425.72Z" transform="translate(370.36 -320.22)" fill="#fff"/><rect width="264.6" height="304.81" fill="none"/></svg>