<svg id="Layer_1" data-name="Layer 1" xmlns="http://www.w3.org/2000/svg" viewBox="0 0 388.8 388.8"><title>kine</title><path d="M-1588.88-249.94c1.17-4,2.55-7.9,3.49-11.93,4.07-17.42-6.1-30.32-24.07-31-10.22-.36-19,2.68-26.17,10.06-1.74,1.79-3.54,3.53-5.26,5.33-6.43,6.72-9.54,7.2-17.4,2.58-24.88-14.63-49.14-10.75-73,2.65-10.78,6.07-21.69,11.75-34,13.84-13.6,2.31-26.89,1.16-39.6-4.49a19.8,19.8,0,0,1-8.34-6.14c2.55-1.21,4,.26,5.57.95,23.2,10.23,46,9.45,68.1-3,13.94-7.82,27.65-16.07,43.59-19.37a50.22,50.22,0,0,0,7.74-1.88c5.8-2.21,7-6.59,3.06-11.38-3.69-4.5-7.19-9.28-11.51-13.12-18.61-16.55-27.36-38.07-32-61.79-1-4.89-1.88-9.8-3-14.66-2.17-9.64-4.87-19.05-12-26.46-1.12-1.16-2.43-2.61-1-4.36s3-.51,4.42.26c9.29,5,9.76,4.67,10.35-6.3.06-1.14-.1-2.63,1.19-3.05,1.5-.49,1.75,1.15,2.34,2,7.47,11.19,14.2,12.92,26.13,6.55a77.17,77.17,0,0,0,20.67-15.53c9-9.68,13.21-21.06,12-34.25a26.54,26.54,0,0,0-21.9-24c-12.44-2.45-25.47,3.41-31,14.2a129.65,129.65,0,0,0-10.24,28.09c-3.27,13.41-10.75,22.09-24.45,26.18-17.32,5.18-27.94,17.23-31.82,35.13-3.72,17.11-9.95,33.47-15.61,50-2.26,6.58-6.76,11.81-11.61,16.66-1.56,1.57-3.79,2.94-5.72,1s.33-3.75,1.57-5c7.76-7.79,10.21-18.19,13.64-28,4.33-12.4,7.94-25.05,11.9-37.57a90.89,90.89,0,0,1,7.83-18.33c6.94-12,17.23-19.41,30.86-21.47,8.48-1.28,13.47-5.85,16.24-13.53,3.39-9.38,6.46-18.9,10.22-28.13,6.86-16.84,22-25.85,40.13-24.33,12,1,21.6,10.32,24.76,23.95a30.6,30.6,0,0,1,.1,13.86c-5.49,24.1-19.2,41.28-42.33,50.62-4,1.62-7.62,2-11-1.47a15,15,0,0,0-7.4-4c-6.09-1.46-9.2,1.47-7.69,7.48,2.36,9.35,5.53,18.47,7.46,27.95,2.5,12.21,4.49,24.54,8.6,36.39,1.56,4.48,3.32,8.75,6.54,12.2,11.27,12.08,21,25.34,30.79,38.61,5.14,7,11.23,13.22,19.25,17.09,8.91,4.29,12.95,3.31,18.7-4.6,9.56-13.13,23.07-13.73,37.31-11.71,11.3,1.59,19.06,7.74,22,18.93,2.9,11,.41,20.74-7.91,28.77Z" transform="translate(1887.4 549.16)" fill="#fff"/><path d="M-1561.75-233.83c8.58,4.65,14.43,11.58,17,21,1.8,6.51-.8,10.16-7.72,10.9a59.63,59.63,0,0,1-19.83-1.43c-18.8-4.36-37.27-9.88-55.54-16.07-14.54-4.93-28.63-5.39-42.21,3.15-4.45,2.8-9.74,3.38-14.93,3.39q-42.19,0-84.38-.13c-11-.05-21.86-2-32.78-3.1a142.35,142.35,0,0,0-14.45-.57c-10,0-10,0-19.1-5.56,2-1.36,3.93-.76,5.7-.51,42.52,6,85.3,5.13,128.06,4.82,8.65-.06,17.3-.28,26-.41,5.49-.07,6.54-1.89,4.23-6.95-.91-2-3-2.94-4.39-5.18,12.43-1.82,24.18-.3,35.87,2.2,16.11,3.46,31.41,9.58,47.12,14.36,10.68,3.26,21.75,4.56,32.66,6.61,6.25,1.17,10.65-5.23,7.69-11.21-1.81-3.68-4.66-6.85-7-10.29-1-1.56-3-2.82-2-5.2Z" transform="translate(1887.4 549.16)" fill="#fff"/><path d="M-1698.7-296.51c-6.61-1.24-11.6-4.22-16.36-7.43-17.42-11.78-31-27-40.08-46.06a37.23,37.23,0,0,1-3.67-20.3c.19-1.76-.31-4.05,2.2-4.35s2.77,2,3.23,3.7a116.15,116.15,0,0,0,20.12,40.31c8.45,11,17.58,21.26,29.41,28.79A12.64,12.64,0,0,1-1698.7-296.51Z" transform="translate(1887.4 549.16)" fill="#fff"/><path d="M-1632.53-251.48c3.51-.63,5.57,1,7.7,2.15,12.85,6.67,25.59,13.52,38.45,20.15,6.63,3.42,7.75,3.1,12.13-3.12,1.25-1.77,2-1.34,2.93-.07,1.77,2.48,2.45,5.29.58,7.89-1.63,2.27-3.93,2.44-6.83,1.71-12.65-3.18-23.71-9.56-34.63-16.33C-1618.69-243.12-1625.25-247-1632.53-251.48Z" transform="translate(1887.4 549.16)" fill="#fff"/><path d="M-1694.33-334.18a43.18,43.18,0,0,1-11.37-20.71c-2.89-13-7.9-25.37-10.41-38.44-.24-1.22-.94-2.44.22-4.05,2.22,3.79,3,7.83,4.16,11.72,2.48,8.61,5,17.22,7.06,25.94a69,69,0,0,0,11.18,24.77Z" transform="translate(1887.4 549.16)" fill="#fff"/><path d="M-1693.49-334.95a3.23,3.23,0,0,1,1.6,3.06l-2.44-2.29Z" transform="translate(1887.4 549.16)" fill="#fff"/><path d="M-1689.91-331l-.37-.11,0,.6a.91.91,0,0,0,.38-.14C-1689.88-330.69-1689.91-330.86-1689.91-331Z" transform="translate(1887.4 549.16)" fill="#fff"/><path d="M-1588.25-249.39l-1.08.52a.69.69,0,0,1,.45-1.07Z" transform="translate(1887.4 549.16)" fill="#fff"/><path d="M-1561.73-234l-.34.4v-.3l.33.06Z" transform="translate(1887.4 549.16)" fill="#fff"/><rect width="388.8" height="388.8" fill="none"/></svg>