<svg id="Layer_1" data-name="Layer 1" xmlns="http://www.w3.org/2000/svg" viewBox="0 0 371.52 317.52"><title>logo</title><path d="M395.91,507.16c.19-5.6,4.84-8.23,7.67-11.79,10.8-13.55,15.81-29.36,18.71-46a105.89,105.89,0,0,0-2.12-46.75c-3.59-12.95-8.9-25.2-17.29-36.08-7.15-9.29-14.94-17.82-24.23-24.87-13.29-10.09-28.41-16.36-44.64-19.76a106.63,106.63,0,0,0-38.65-1,108.43,108.43,0,0,0-37,12.58c-5.3,3-11,5.66-15.63,9.48-5.22,4.27-9.52,9.66-14.2,14.58a92,92,0,0,0-14.7,20.5,121,121,0,0,0-7.3,17.92c-.88,2.62-3,4.84-2.13,8.94-4.17-7.64,6.76-37.69,16.64-52.86,10.59-16.25,23.9-29.48,40.63-38.68,60.57-33.3,127.46-10,158.13,38.75C459.49,415.16,430.32,482.43,395.91,507.16Z" transform="translate(-124.2 -275.84)" fill="#4fa0ca"/><path d="M367.91,403.66l-5.08-4q-7.8-6.15-15.6-12.28c-.55-.43-.46-1-.46-1.5,0-5,0-10,0-15.05,0-1.16-.3-1.54-1.49-1.51-3.35.06-3.35,0-3.35,3.34s0,6.71,0,10.07a2.1,2.1,0,0,1-.18,1.32,32.54,32.54,0,0,1-3.89-3.19c-6.46-5.45-12.88-10.94-19.32-16.41-1.29-1.1-1.48-1.06-2.79,0q-11,8.88-22,17.74-10.31,8.32-20.58,16.68l-5,4.06.1.37c1.5,0,3,0,4.5,0a7.26,7.26,0,0,1,7.27,5.45,11.69,11.69,0,0,1,.38,3.28c0,9.86,0,19.72,0,29.58,0,1.11.2,1.7,1.41,2.09a15,15,0,0,1,8.56,6.33c4.3,7.42,8.6,15,8,24.09-.37,5.14-2.25,8-6.87,9.63a24.86,24.86,0,0,1-3.07.84,4.41,4.41,0,0,0-2.2,1.14,3.26,3.26,0,0,1-4.22.19,3.5,3.5,0,0,1-1-4.26,3.33,3.33,0,0,1,3.77-1.68,9.4,9.4,0,0,0,7.27-1.87,4,4,0,0,0,1.43-3.27c.58-7.11-1.77-13.36-5.63-19.17-2-1-3.28-2.89-5-4.2-4.18-3.14-8.44-2.84-12.33.79a17.94,17.94,0,0,1-3.58,3c-1.17.64-1.66,2.21-2.33,3.43A30.5,30.5,0,0,0,260.67,472a18.86,18.86,0,0,0,.28,3.67,3.93,3.93,0,0,0,2.79,3.34c2,.66,3.9,1.61,6.14.93a3.14,3.14,0,0,1,3.52,1.91,3.59,3.59,0,0,1-1,4,3.2,3.2,0,0,1-4.12,0,5.39,5.39,0,0,0-2.68-1.3,16.21,16.21,0,0,1-5.78-2.25c-2.65-1.89-3.57-4.68-3.76-7.75-.49-7.93,2.09-15,6.42-21.44a3.72,3.72,0,0,0,.79-1.83,2.59,2.59,0,0,1,.7-1.47c2.52-2.77,5.31-5.15,9-6.29a1.13,1.13,0,0,0,.94-1.26q0-15.18,0-30.35c0-1.76-.31-2-2.1-2-2.43,0-4.85,0-7.27,0a6.18,6.18,0,0,1-4.58-2.2,4.77,4.77,0,0,1-.24-5.91c1.18-1.78,3-2.88,4.59-4.19q18.63-15.12,37.32-30.2c3.49-2.83,7-5.67,10.5-8.48s7.42-2.61,10.82.44c3.7,3.31,7.53,6.48,11.32,9.69.26.22.55.69.95.48s.2-.69.2-1.05c0-1.53.06-3.06,0-4.59,0-.82.2-1.13,1.06-1.13,5.31,0,10.63,0,15.94,0,1,0,1.05.49,1.05,1.26,0,6.16,0,12.33,0,18.49a2.15,2.15,0,0,0,.87,1.95q10,7.84,20,15.77c2.42,1.92,3.32,5.18,2,7.49s-3.42,2.82-5.74,2.92c-2.54.11-5.1,0-7.65,0-1.74,0-1.85.11-1.86,1.9,0,6.34,0,12.67,0,19-.06,10.16.07,20.32-.25,30.47-.28,9.4-4.63,16.7-12.89,21.32a23.19,23.19,0,0,1-30.94-8.14,27.51,27.51,0,0,1-4.23-14.85c0-3.49,0-7,0-10.46a1.46,1.46,0,0,0-1.14-1.66,14.33,14.33,0,0,1,2.59-27.59,13.69,13.69,0,0,1,13.87,7.3,14.25,14.25,0,0,1-7.8,20.36,1.3,1.3,0,0,0-1,1.48c0,4.13,0,8.25,0,12.37a17.41,17.41,0,0,0,34.73,1.7c.52-5.68.18-11.38.25-17.07.14-11.64.14-23.29.22-34.93,0-4.89,3-7.8,7.94-7.81h5.43Zm-59.17,31.13a7.43,7.43,0,0,0,7.23,7.65c3.82.06,7.31-3.62,7.29-7.69a7.51,7.51,0,0,0-7.39-7.52A7.31,7.31,0,0,0,308.74,434.79Z" transform="translate(-124.2 -275.84)" fill="#4fa0ca" stroke="#4fa0ca" stroke-miterlimit="10" stroke-width="3"/><path d="M318.87,434.87a2.87,2.87,0,1,1-5.74-.14,2.87,2.87,0,1,1,5.74.14Z" transform="translate(-124.2 -275.84)" fill="#4fa0ca" stroke="#4fa0ca" stroke-miterlimit="10"/><path d="M205.88,495.08" transform="translate(-124.2 -275.84)" fill="#747472"/><path d="M224.77,341.9c-28,35-38.73,73.17-26.53,117.58,9.45,34.39,30.7,57.65,61,74.09,22.5,12.21,46.59,16.11,71.94,13,25.19-3.06,47.52-12.58,66.21-29.8S428.9,478.92,435,454.11c4.89,43.23-42.72,99.74-94.82,113.06-63,16.09-128.28-15.95-153.15-74.8C161.14,431.13,187.53,367.43,224.77,341.9Z" transform="translate(-124.2 -275.84)" fill="#767775"/><path d="M297.67,515.43c10.66,3.67,21.2,4.28,31.67,1.34,7.93-2.22,9.59-5.93,6-13.18-1.67-3.41-.57-4.75,2.64-5.79,13-4.2,25.9-8.54,38.85-12.79,3.54-1.16,7.09-1.62,10.74-.21,5.36,2.06,6.13,6,1.64,9.71a40.79,40.79,0,0,1-6.28,4.05q-27.82,15.15-55.7,30.21c-10.32,5.59-21.18,4.9-32.11,2.59-14.8-3.12-29.54-6.5-44.47-9a42,42,0,0,0-12.91-.14c-3.23.46-5.5-.47-7.25-3.12-4.07-6.12-12.13-12.76-15.25-19.38-.84-1.8-3.55-.6-1.54-1.18,6.63-1.91,28.86.34,36.3-.92,14.61-2.49,18.08-9.14,31.62-5.63,12.89,3.34,26,5.25,39.08,7.79a30.91,30.91,0,0,1,8.47,2.86c2,1.06,3.63,2.38,3.6,4.92s-1.72,3.84-3.65,4.95c-4,2.33-8.58,2.65-13,2.82C310,515.6,303.82,515.43,297.67,515.43Z" transform="translate(-124.2 -275.84)" fill="#767674"/><path d="M240.61,491.24" transform="translate(-124.2 -275.84)" fill="#767674"/><rect width="371.52" height="317.52" fill="none"/></svg>