<svg id="Layer_1" data-name="Layer 1" xmlns="http://www.w3.org/2000/svg" viewBox="0 0 379.21 404.69"><title>nurse-2</title><path d="M-128.3,369.35c-3.43,5.33-16.11,8.41-23.1,6.18s-12.42-7.09-13.21-14.85c-2.6-25.87.67-50.94,12.67-74.23,6.72-13.05,18.18-21.81,30.35-29.71,12-7.78,23.8-15.79,34.13-25.91,9.12-8.93,12.7-20.19,15.33-31.92,4.36-19.39,4.9-39.28,7.17-58.95.21-1.83,1.12-4.45-1.15-5.41s-3.66,1.23-4.93,2.68c-7.74,8.8-10.51,19.88-13.81,30.69-7.17,23.45-17.06,45.21-37.43,60.49-.54.4-1,.92-1.54,1.28-1.24.81-2.6,2-4,.59s-.61-2.92.29-4.1c3.31-4.39,6.24-9,9.12-13.71,5.5-8.95,6.79-19,8.39-29.06a5.93,5.93,0,0,0-.14-2.48c-.71-2.6-.25-6.58-3.85-6.71-3.39-.11-2.46,3.71-3.08,5.92a77.79,77.79,0,0,1-18.19,32.31c-7.81,8.45-16.77,15.71-24.88,23.84-12.22,12.24-19.86,26.6-19.76,44.36a8.22,8.22,0,0,1-1.62,5.66c-1.81,2.08-3.4,5.53-6.39,4.85s-1.63-4.25-1.93-6.58c-1.65-12.77-8.41-22.61-17.76-30.9-14.09-12.49-31.28-20.16-47-30.1-28.76-18.18-50.17-41.81-54.66-77.09-2.57-20.26.24-39.47,15.65-54.6,11.48-11.27,25.39-17,41.74-17.59,23.34-.86,42.56,7.63,58.73,23.87,2.25,2.27,3.59,1.57,5.32-.21,9.12-9.41,20.28-15.55,32.38-20.18,20.2-7.73,45.38-2.79,59,11.57,5.64,6,8.16,13.25,9.24,21.16.35,2.55-.42,4.78-3.22,5.41-2.6.58-3.74-1.35-4.05-3.4C-97.86,90-125.59,79.44-146,83.08c-13.74,2.46-22.3,7.93-33.28,16.44-1.68,1.29-8,6.59-10.8,7.32-3.31.84-6.68-2.42-8.08-3.48-23.53-17.93-49.21-25.59-77.54-13.48-16.52,7.07-25.93,21-26.93,39.1-1.68,30.22,12.37,53.39,34.62,72.42,13.26,11.35,28.65,19.4,43.62,28.07,14.65,8.48,27.4,18.86,35.83,33.87.21.37.76.55,1.15.82,1.55-.88,1.81-2.46,2.31-3.82,6.77-18.32,19.42-31.85,34.59-43.56,14.64-11.3,25.2-25.57,29.43-43.93.82-3.56,1.52-7.19,6.08-7.26s7.52,2.71,8.77,6.89c2,6.83,1.78,13.81.41,20.76a60.78,60.78,0,0,0-1.27,9.1c3.47-2.58,4.79-6.33,6.35-9.9,6.22-14.21,10.44-29.16,15.95-43.63,3-7.73,7-14.76,14.33-19.32a12.14,12.14,0,0,1,5.58-2c3.87-.29,5.87,1.09,6,5.31A204.5,204.5,0,0,1-60,159.25c-1.5,15.06-2.18,30.22-5.69,45A66.9,66.9,0,0,1-81.61,234.9c-9.16,10-20.52,16.84-31.55,24.27-13.57,9.15-26.91,18.52-34.27,34a84.13,84.13,0,0,0-7.23,26.88c-.55,4.8-1.2,9.58-1.88,14.36-.79,5.58.23,6.35,5.41,4.22,10.92-4.49,22.68-.48,27.16,9.65,1.42,3.2-.28,4.56.46,5.62-7.33-10.44-17.94-14.21-25.34-9.58-6.39,4-9.54,11.85-7.28,18.62,1.68,5,4.87,7.6,10.26,9C-140.94,373.2-133.16,370-128.3,369.35Z" transform="translate(372.49 -14)" fill="#fff"/><path d="M-140.43,351.52a6.24,6.24,0,0,1,5.76,6.66,6.23,6.23,0,0,1-7.38,5.4,6.24,6.24,0,0,1-4.68-7.56A6.17,6.17,0,0,1-140.43,351.52Z" transform="translate(372.49 -14)" fill="#fff"/><rect width="379.21" height="404.69" fill="none"/><polyline points="90.81 143.54 156.38 143.54 161.85 159.93 173.77 105.29 181.72 190.73 189.17 143.04 265.17 143.04" fill="none" stroke="#fff" stroke-miterlimit="10" stroke-width="4"/><path d="M-281.85,157.54" transform="translate(372.49 -14)" fill="#fff"/><path d="M-281.85,159.54c2.58,0,2.58-4,0-4s-2.57,4,0,4Z" transform="translate(372.49 -14)" fill="#fff"/><path d="M-107.29,157" transform="translate(372.49 -14)" fill="#fff"/><path d="M-107.29,159c2.57,0,2.58-4,0-4s-2.58,4,0,4Z" transform="translate(372.49 -14)" fill="#fff"/></svg>